<?xml version="1.0" encoding="utf-8"?>
<svg xmlns="http://www.w3.org/2000/svg" fill="none" height="422" viewBox="0 0 452 422" width="452">
  <g clip-path="url(#clip0)">
    <path d="M450.819 460.017V562.24c0 22.233-18.088 40.32-40.322 40.32H218.322c-22.234 0-40.322-18.087-40.322-40.32V117.322C178 95.089 196.088 77 218.322 77h192.175c22.234 0 40.322 18.089 40.322 40.322v330.472" fill="#f7f7f7"/>
    <path d="M450.819 460.017V562.24c0 22.233-18.088 40.32-40.322 40.32H218.322c-22.234 0-40.322-18.087-40.322-40.32V117.322C178 95.089 196.088 77 218.322 77h192.175c22.234 0 40.322 18.089 40.322 40.322v330.472" stroke="#4a4a4a" stroke-linecap="round" stroke-linejoin="round" stroke-width="2"/>
    <path d="M190.991 176.427v-59.106c0-15.093 12.236-27.33 27.33-27.33h33.553a9.374 9.374 0 0 1 9.363 8.915c.417 7.815 6.876 13.939 14.703 13.939h76.939c7.827 0 14.286-6.124 14.702-13.939a9.376 9.376 0 0 1 9.363-8.914h33.555c15.093 0 27.329 12.236 27.329 27.329v444.92c0 15.093-12.236 27.328-27.329 27.328H218.321c-15.094 0-27.33-12.235-27.33-27.328V181.92" fill="#fff"/>
    <path d="M190.987 176.431v-59.106c0-15.092 12.235-27.33 27.329-27.33h33.553a9.374 9.374 0 0 1 9.363 8.915c.417 7.815 6.876 13.939 14.703 13.939h76.94c7.826 0 14.286-6.124 14.701-13.939a9.377 9.377 0 0 1 9.364-8.914h33.554c15.094 0 27.329 12.237 27.329 27.329v444.921c0 15.092-12.235 27.328-27.329 27.328H218.316c-15.094 0-27.329-12.236-27.329-27.328V181.924" stroke="#4a4a4a" stroke-linecap="round" stroke-linejoin="round" stroke-width="2"/>
    <path d="M190.993 225.979v-2.856" stroke="#4a4a4a" stroke-linecap="round" stroke-linejoin="round" stroke-width="2"/>
    <path d="M325.37 99.71h-38.927a3.052 3.052 0 1 1 0-6.106h38.927a3.054 3.054 0 0 1 0 6.106" fill="#ececec"/>
    <path d="M340.705 101.381a4.723 4.723 0 1 1 0-9.448 4.724 4.724 0 0 1 0 9.448" fill="#ececec"/>
    <path d="M373.007 235.6c0 32.364-26.289 58.6-58.717 58.6-32.429 0-58.718-26.236-58.718-58.6S281.861 177 314.29 177c32.428 0 58.717 26.236 58.717 58.6" fill="#ececec"/>
    <path d="M322.505 217.218s-5.378-2.187-10.767-2.156c-4.754.033-9.507 1.797-10.587 8.316 0 0-1.409 6.16 6.352 9.858 7.76 3.698 16.23 6.171 13.054 16.377 0 0-4.933 11.982-22.402 3.17" stroke="#4a4a4a" stroke-linecap="round" stroke-linejoin="round" stroke-width="3"/>
    <path d="M310.793 205.944v9.118" stroke="#4a4a4a" stroke-linecap="round" stroke-linejoin="round" stroke-width="3"/>
    <path d="M310.793 255.879v9.9" stroke="#4a4a4a" stroke-linecap="round" stroke-linejoin="round" stroke-width="3"/>
    <path d="M382.793 352.8H245.786c-5.382 0-9.786-4.395-9.786-9.767s4.404-9.767 9.786-9.767h137.007c5.383 0 9.786 4.395 9.786 9.767s-4.403 9.767-9.786 9.767" fill="#ececec"/>
    <path d="M343.648 391.866h-58.717c-5.382 0-9.786-4.395-9.786-9.766s4.404-9.767 9.786-9.767h58.717c5.383 0 9.786 4.395 9.786 9.767s-4.403 9.766-9.786 9.766" fill="#ececec"/>
    <path d="M273.819 384.017V486.24c0 22.233-18.088 40.32-40.322 40.32H41.322C19.087 526.56 1 508.473 1 486.24V41.322C1 19.089 19.088 1 41.322 1h192.175c22.234 0 40.322 18.089 40.322 40.322v330.472" fill="#f7f7f7"/>
    <path d="M273.819 384.017V486.24c0 22.233-18.088 40.32-40.322 40.32H41.322C19.087 526.56 1 508.473 1 486.24V41.322C1 19.089 19.088 1 41.322 1h192.175c22.234 0 40.322 18.089 40.322 40.322v330.472" stroke="#4a4a4a" stroke-linecap="round" stroke-linejoin="round" stroke-width="2"/>
    <path d="M273.819 377.287v1.703" stroke="#4a4a4a" stroke-linecap="round" stroke-linejoin="round" stroke-width="2"/>
    <path d="M13.992 100.427V41.321c0-15.092 12.235-27.33 27.329-27.33h33.553a9.374 9.374 0 0 1 9.363 8.915c.417 7.815 6.876 13.939 14.703 13.939h76.939c7.827 0 14.286-6.124 14.702-13.939a9.376 9.376 0 0 1 9.363-8.914h33.555c15.093 0 27.329 12.237 27.329 27.329v444.92c0 15.093-12.236 27.328-27.329 27.328H41.321c-15.094 0-27.33-12.235-27.33-27.328V105.92" fill="#fff"/>
    <path d="M56.394 103.992a22.1 22.1 0 0 0-8.648 1.75c-7.963 3.344-13.653 11.166-13.807 20.267a22.4 22.4 0 0 0 .902 6.707s1.116 3.413-1.023 8.059c-1.038 2.253-2.397 4.065-3.515 5.33-.727.822-.094 2.115 1.003 2.047 1.583-.099 3.56-.374 5.396-1.058 2.328-.867 3.916-1.983 4.763-2.681a1.23 1.23 0 0 1 1.522-.041 22.3 22.3 0 0 0 8.761 3.935c.409.085.557.109.704.135 1.28.23 2.596.356 3.942.356h91.078c12.249 0 22.178-9.93 22.178-22.18v-.446c0-12.25-9.929-22.18-22.178-22.18z" fill="#ececec"/>
    <path d="M218.247 166.992a22.1 22.1 0 0 1 8.649 1.75c7.962 3.344 13.652 11.166 13.806 20.267a22.4 22.4 0 0 1-.902 6.707s-1.116 3.413 1.024 8.059c1.037 2.253 2.397 4.065 3.515 5.33.727.822.093 2.115-1.003 2.047-1.583-.099-3.561-.374-5.396-1.058-2.329-.867-3.917-1.983-4.764-2.681a1.23 1.23 0 0 0-1.521-.041 22.3 22.3 0 0 1-8.762 3.935c-.408.085-.556.109-.704.135-1.28.23-2.596.356-3.942.356h-61.078c-12.248 0-22.178-9.93-22.178-22.18v-.446c0-12.25 9.93-22.18 22.178-22.18z" fill="#ececec"/>
    <path d="M56.394 223.502a22.1 22.1 0 0 0-8.648 1.751c-7.963 3.343-13.653 11.166-13.807 20.266-.04 2.333.278 4.586.902 6.708 0 0 1.116 3.413-1.023 8.059-1.038 2.253-2.397 4.065-3.515 5.329-.727.823-.094 2.116 1.003 2.048 1.583-.1 3.56-.374 5.396-1.058 2.328-.867 3.916-1.984 4.763-2.681a1.23 1.23 0 0 1 1.522-.041 22.3 22.3 0 0 0 8.761 3.935c.409.085.557.109.704.135 1.28.23 2.596.356 3.942.356h41.078c12.249 0 22.178-9.93 22.178-22.18v-.446c0-12.25-9.929-22.181-22.178-22.181z" fill="#ff0083"/>
    <path d="M13.987 100.431V41.325c0-15.092 12.235-27.33 27.329-27.33h33.553a9.374 9.374 0 0 1 9.363 8.915c.417 7.815 6.876 13.939 14.703 13.939h76.94c7.826 0 14.286-6.124 14.701-13.939a9.377 9.377 0 0 1 9.364-8.914h33.554c15.094 0 27.329 12.237 27.329 27.329v444.921c0 15.092-12.235 27.328-27.329 27.328H41.316c-15.094 0-27.33-12.236-27.33-27.328V105.924" stroke="#4a4a4a" stroke-linecap="round" stroke-linejoin="round" stroke-width="2"/>
    <path d="M13.993 149.979v-2.856" stroke="#4a4a4a" stroke-linecap="round" stroke-linejoin="round" stroke-width="2"/>
    <path d="M148.37 23.71h-38.927a3.052 3.052 0 1 1 0-6.106h38.927a3.054 3.054 0 0 1 0 6.106" fill="#ececec"/>
    <path d="M163.705 25.381a4.723 4.723 0 1 1 0-9.448 4.724 4.724 0 0 1 0 9.448" fill="#ececec"/>
    <path d="M275 428h20V77h-20z" fill="#000" opacity=".031"/>
    <mask height="14" id="mask0" mask-type="alpha" maskUnits="userSpaceOnUse" width="12" x="56" y="239">
      <path d="M56 239.001h11.556v13.013H56z" fill="#fff"/>
    </mask>
    <g mask="url(#mask0)">
      <path d="M65.081 245.507q0-1.07-.288-1.922a4.1 4.1 0 0 0-.819-1.439 3.54 3.54 0 0 0-1.291-.906q-.762-.315-1.715-.314h-2.53v9.162h2.53q.953 0 1.715-.315.76-.315 1.291-.905.531-.589.819-1.44.287-.85.288-1.921m2.475 0q0 1.431-.477 2.628a6 6 0 0 1-1.342 2.06 6 6 0 0 1-2.078 1.342q-1.215.477-2.691.477H56V239h4.968q1.476 0 2.691.482 1.215.48 2.078 1.34a6 6 0 0 1 1.342 2.057q.476 1.197.477 2.628" fill="#fff"/>
    </g>
    <path d="M73.27 250.439q1.154 0 1.707-.773.553-.775.553-2.269t-.553-2.276q-.553-.784-1.707-.784-1.168 0-1.727.788-.559.787-.558 2.272 0 1.485.558 2.264t1.727.778m0-7.803q1.035 0 1.877.333a4.05 4.05 0 0 1 1.436.946q.594.61.918 1.493t.325 1.971q-.001 1.098-.325 1.98a4.3 4.3 0 0 1-.918 1.503 4 4 0 0 1-1.436.954 5.1 5.1 0 0 1-1.877.333 5.1 5.1 0 0 1-1.88-.333 4 4 0 0 1-1.445-.954 4.3 4.3 0 0 1-.926-1.503q-.33-.882-.33-1.98 0-1.088.33-1.971a4.2 4.2 0 0 1 .926-1.493 4.1 4.1 0 0 1 1.445-.946 5.1 5.1 0 0 1 1.88-.333" fill="#fff"/>
    <path d="M79.561 252.014v-9.234h1.36q.43 0 .566.405l.153.729q.28-.288.59-.522t.657-.405.742-.261a4 4 0 0 1 .865-.09q.756 0 1.34.257.585.256.977.72.392.462.594 1.106t.202 1.418v5.877h-2.223v-5.877q0-.845-.39-1.31-.393-.463-1.176-.463-.575 0-1.079.261a3.8 3.8 0 0 0-.954.711v6.678z" fill="#fff"/>
    <mask height="11" id="mask1" mask-type="alpha" maskUnits="userSpaceOnUse" width="9" x="89" y="242">
      <path d="M89.174 242.636h8.432v9.513h-8.432z" fill="#fff"/>
    </mask>
    <g mask="url(#mask1)">
      <path d="M93.655 244.229q-.97 0-1.52.549-.55.55-.703 1.557h4.176q0-.432-.117-.814a1.9 1.9 0 0 0-.359-.671 1.7 1.7 0 0 0-.613-.454 2.1 2.1 0 0 0-.864-.167m-.045-1.593q.873 0 1.607.28.735.278 1.264.814.532.535.828 1.313.298.78.297 1.778 0 .251-.022.419a.7.7 0 0 1-.08.26.3.3 0 0 1-.159.135.7.7 0 0 1-.252.041h-5.706q.1 1.423.765 2.088.666.666 1.765.666.54 0 .931-.126.392-.126.684-.279t.513-.278a.86.86 0 0 1 .427-.126q.135 0 .235.053a.5.5 0 0 1 .171.154l.647.809a3.7 3.7 0 0 1-.828.725q-.459.292-.958.468a5.3 5.3 0 0 1-1.017.248 7 7 0 0 1-1.004.071 5 5 0 0 1-1.79-.319 4 4 0 0 1-1.44-.946 4.5 4.5 0 0 1-.964-1.548q-.35-.921-.35-2.137 0-.945.305-1.778a4.3 4.3 0 0 1 .878-1.448 4.1 4.1 0 0 1 1.395-.976q.826-.361 1.858-.361" fill="#fff"/>
    </g>
    <mask height="4" id="mask2" mask-type="alpha" maskUnits="userSpaceOnUse" width="4" x="98" y="249">
      <path d="M98.885 249.431h2.726v2.709h-2.726z" fill="#fff"/>
    </mask>
    <g mask="url(#mask2)">
      <path d="M98.885 250.79a1.36 1.36 0 0 1 .39-.963 1.4 1.4 0 0 1 1.508-.288q.252.107.432.288.18.18.288.432.109.251.109.531 0 .287-.109.535a1.3 1.3 0 0 1-.72.711 1.4 1.4 0 0 1-.531.104 1.4 1.4 0 0 1-.976-.387 1.3 1.3 0 0 1-.287-.428 1.4 1.4 0 0 1-.104-.535" fill="#fff"/>
    </g>
  </g>
  <defs>
    <clipPath id="clip0">
      <path d="M0 0h452v422H0z" fill="#fff"/>
    </clipPath>
  </defs>
</svg>