<?xml version="1.0" encoding="utf-8"?>
<svg xmlns="http://www.w3.org/2000/svg" fill="none" height="202" viewBox="0 0 212 202" width="212">
  <g clip-path="url(#clip0_5967_84806)">
    <rect fill="#fff" height="202" rx="12" width="212"/>
    <path d="M234.003-12.278H-19.219V229h253.222z" fill="#fcfcfc"/>
    <path d="M185.699 166.541c-.437-2.812 5.281-3.18 8.195-3.012l6.74-6.032H46.009l-7.326 9.014c-3.496-.201-10.357.241-9.833 3.615s-9.396 14.662-14.422 19.884c0 0-8.537 11.099-8.537 26.503 0 21.213 16.977 41.178 16.977 41.178l224.926-13.451-4.734-15.937s-81.686 2.71-76.335-25.409c2.396-12.593 6.956-19.783 6.956-19.783 4.188-4.351 12.455-13.758 12.018-16.57" fill="#f7f7f7"/>
    <path d="M-73.47 65.514c71.53 23.326 247.113 23.73 377.206 142.942 0 0-31.81-46.612-379.869-9.322" fill="#f2f2f2"/>
    <path d="M136.08 52.463a8 8 0 0 1-.049-.843c0-3.876 2.796-7.416 7.278-9.191a16.9 16.9 0 0 1 7.059-1.13c2.4.128 4.751.773 6.922 1.883 4.125-2.984 9.152-4.194 14.06-3.37 5.136.773 10.947 6.206 11.581 12.632H136.08z" fill="#fefefe"/>
    <path d="M29.811 27.203a5 5 0 0 1-.03-.535c0-2.46 1.765-4.69 4.611-5.82a10.6 10.6 0 0 1 4.472-.714c1.517.079 3.004.485 4.383 1.19 2.617-1.894 5.79-2.658 8.913-2.132 3.253.485 6.873 3.936 7.28 8.011l-29.629-.01z" fill="#fff"/>
    <path d="M158.346 21.67c0 .277-.04.555 0 .822h61.545c0-.277.049-.555.049-.823 0-3.817-2.756-7.287-7.169-9.032a16.8 16.8 0 0 0-6.941-1.121c-2.35.129-4.669.764-6.801 1.854-3.609-2.816-8.796-4.055-13.842-3.321-5.048.743-9.281 3.351-11.294 6.94-2.498-2.102-6.416-2.796-9.836-1.785-3.421 1.012-5.721 3.57-5.721 6.406v.04h.01z" fill="#fff"/>
    <path d="M-39.95 21.15a8 8 0 0 1-.05-.843c0-3.877 2.796-7.417 7.278-9.192 2.26-.882 4.66-1.259 7.06-1.13s4.75.773 6.92 1.884c4.126-2.985 9.153-4.194 14.08-3.371C.476 9.27 6.286 14.705 6.92 21.13h-46.85z" fill="#fff"/>
    <path d="M596.105 168.366V10.094s-24.561 1.081-46.802 22.38c-22.23 21.298-44.213 3.242-77.152 21.685-89.983 50.42-121.355 43.28-162.98 34.704-38.145-7.873-111.312-48.734-149.803-50.876-25.92-1.448-80.306 31.184-109.348 2.657C20.987 12.107-4.051 1.69-18.506 7.576c-13.654-11.343-34.892 10.45-34.892 10.45v76.072L47.759 126.8l175.603 5.256c-15.636 18.174 62.051-4.501 62.051-4.501" fill="#f7f7f7"/>
    <path d="M195.91 76.7c-6.101-8.897-14.329-.021-14.837 2.76-6.888-4.763-15.409 2.762-14.17 7.586 0 0-8.8-3.553-14.875 4.134-13.911-3.595-11.574 10.013-11.574 10.013l9.45 13.782 77.584-13.185-.757-31.803c-2.931-.901-5.901-.83-5.901-.83-2.682-1.738-10.384-.519-11.8 8.563-.654-4.485-9.063-6.109-13.12-1.02" fill="#f5f5f5"/>
    <path d="M151.825 96.54c-.194-8.151 9.011-11.158 14.789-8.148 0-5.88 7.778-10.205 13.594-7.62" stroke="#ececec" stroke-linecap="round" stroke-linejoin="round" stroke-width="2"/>
    <path d="M434.827 98.965S357.327 60 296.157 64.986c-53.515 4.383-136.905 55.54-178.475 68.324l-4.916 38.594h329.589V103.1" fill="#f9f9f9"/>
    <path d="M223.035 90.146c2.115 2.19 2.342 5.675.453 8.607 1.045 3.863-.919 6.997-3.79 8.117-1.625 4.454-7.102 6.216-13.574 4.127-5.176 2.089-9.885.73-12.756-3.133-3.702-1.485-4.924-4.379-4.634-7.11-2.909-3.574-2.455-7.878-.34-10.608-.806-4.556.327-6.594 3.236-8.834.542-4.241 2.393-5.323 4.949-5.99 2.065-3.146 5.1-3.511 8.613-2.794 3.022-.944 6.51.415 7.769 2.076 3.551.428 4.81 2.593 5.314 4.908 2.619 1.082 2.946 3.121 2.921 5.084 1.877 1.12 2.33 3.7 1.851 5.537z" fill="#f9f9f9"/>
    <path d="M188.394 90.146c-2.115 2.73-2.569 7.034.34 10.608-.29 2.731.932 5.625 4.634 7.11 2.871 3.863 7.58 5.222 12.756 3.133 6.472 2.089 11.949.327 13.574-4.127 2.871-1.12 4.835-4.254 3.79-8.117 1.889-2.932 1.662-6.418-.453-8.607l.012-.013c.479-1.837.026-4.417-1.851-5.537.025-1.963-.302-4.002-2.921-5.084-.504-2.315-1.763-4.48-5.314-4.907-1.259-1.662-4.747-3.02-7.769-2.077-3.513-.717-6.548-.352-8.613 2.794-1.269.33-2.364.764-3.211 1.635" stroke="#ececec" stroke-linecap="round" stroke-linejoin="round" stroke-width="2"/>
    <path d="M222.755 90.521c.47-1.805.025-4.34-1.819-5.44.025-1.93-.285-3.933-2.871-4.996-.495-2.275-1.744-4.415-5.221-4.823-1.238-1.632-4.665-2.967-7.635-2.04-2.474-.507-4.726-.458-6.545.754 1.014-.123 2.116-.024 3.279.21 2.586-.803 5.568.36 6.632 1.781 3.031.359 4.108 2.213 4.541 4.192 2.24.927 2.512 2.671 2.487 4.34 1.609.953 1.992 3.154 1.584 4.724 1.806 1.88 1.992 4.847.383 7.345.891 3.302-.791 5.973-3.241 6.937-1.386 3.809-6.063 5.317-11.607 3.524-4.417 1.793-8.439.631-10.901-2.671-1.25-.507-2.178-1.199-2.821-2.003.223 2.214 1.559 4.365 4.566 5.565 2.821 3.796 7.461 5.131 12.534 3.079 6.36 2.052 11.755.321 13.339-4.056 2.821-1.101 4.751-4.18 3.724-7.976 1.856-2.869 1.634-6.294-.445-8.458z" fill="#dedede" opacity=".12"/>
    <path d="M210.202 123.348c-1.763-9.639-1.157-12.413-.805-15.823.076-2.643 2.632-5.575 3.022-6.154-.025-.365-.39-3.75-.39-3.75-.025-.113-2.506 2.354-3.475 3.461-.164-1.095-.366-5.008-.378-5.575l-5.83-.73c.151 1.75.037 7.702-.214 8.91-1.171-.655-4.559-3.738-4.559-3.738s-.806 3.322-.831 3.687c1.902 2.366 4.974 2.932 5.163 6.141.365 3.398 1.037 8.339-.462 12.781" fill="#f6f6f6"/>
    <path d="M201.503 122.615c.497-5.005.617-10.67.387-12.814-.101-1.724-.837-2.498-2.023-3.275" stroke="#ececec" stroke-linecap="round" stroke-linejoin="round" stroke-width="2"/>
    <path d="M202.333 95.533c.151 1.75-.088 6.984-.34 8.18-.572-.32-1.58-1.166-2.462-1.947" stroke="#ececec" stroke-linecap="round" stroke-linejoin="round" stroke-width="2"/>
    <path d="M211.526 98.112c-.201.189-2.065 2.014-3.035 3.121-.163-1.095-.314-4.895-.327-5.462" stroke="#ececec" stroke-linecap="round" stroke-linejoin="round" stroke-width="2"/>
    <path d="M212.003 101.902c-.39.579-2.531 2.983-2.606 5.625-.268 2.588-.195 8.575.627 15.524" stroke="#ececec" stroke-linecap="round" stroke-linejoin="round" stroke-width="2"/>
    <path d="M201.609 94.493c3.499 2.358 7.257 1.028 8.291-.071" stroke="#ececec" stroke-linecap="round" stroke-linejoin="round" stroke-width="2"/>
    <path d="M68.125 87.032c.153-6.035-10.077-9.561-12.683-7.822-1.487-9.176-12.832-10.842-15.727-6.132 0 0-4.487-11.465-13.177-6.273-7.808-13.887-23.313-5.859-23.313-5.859l-.011 20.755 75.435 57.821 23.334-38.471c1.905-9.27-13.378-10.62-16.291-7.648-.213-3.985-11.645-9.151-17.567-6.37" fill="#f5f5f5"/>
    <path d="M4.661 62.078c1.821-4.97 15.284-7.093 20.238 2.885m.848 2.42c6.556-4.55 13.997 1.012 14.123 4.945 3.31-3.227 14.176-1.953 15.634 7.18" stroke="#ececec" stroke-linecap="round" stroke-linejoin="round" stroke-width="2"/>
    <path d="M-140.093 115.56s77.5-38.965 138.67-33.979c53.516 4.384 136.905 55.54 178.476 68.324l4.916 38.594H-147.62v-68.804" fill="#f9f9f9"/>
    <path d="M-23.398 76.712c25.553 1.825 57.11 12.83 82.9 22.565" stroke="#ececec" stroke-linecap="round" stroke-linejoin="round" stroke-width="2"/>
    <path d="M-19.458 69.788c-1.771 2.219-1.96 5.75-.38 8.72-.875 3.915.77 7.09 3.173 8.224 1.36 4.514 5.945 6.299 11.363 4.182 4.332 2.117 8.275.74 10.678-3.175 3.099-1.504 4.121-4.436 3.879-7.203 2.435-3.62 2.055-7.981.284-10.748.675-4.615-.274-6.68-2.709-8.95-.453-4.297-2.002-5.393-4.142-6.069-1.729-3.187-4.27-3.557-7.21-2.83-2.53-.956-5.45.42-6.504 2.104-2.972.433-4.026 2.626-4.448 4.972-2.192 1.096-2.466 3.162-2.445 5.15-1.57 1.135-1.95 3.749-1.55 5.61z" fill="#f9f9f9" stroke="#ececec" stroke-linecap="round" stroke-linejoin="round" stroke-width="2"/>
    <path d="M9.251 80.535c.243 2.767-.78 5.7-3.879 7.204-.346 1.477-2.245 4.433-7.067 4.433v-4.433h1.158c3.099-1.505 4.122-4.437 3.879-7.204 2.435-3.62 2.056-7.98.285-10.747.674-4.616-.274-6.681-2.71-8.95-.452-4.297-2.162-8.073-5.401-8.883 1.493-.733 5.018-1.197 7.168 2.814 2.14.675 3.69 1.772 4.143 6.069 2.435 2.269 3.383 4.334 2.709 8.95 1.77 2.766 2.15 7.127-.285 10.747" fill="#ececec" opacity=".12"/>
    <path d="M-9.438 98.87c.793-7.18.327-8.67 0-12.315-.07-2.825-2.419-5.807-2.78-6.426.023-.39 1.49-3.879 1.49-3.879.024-.12 2.028 1.252 2.927 2.436.152-1.17-.012-4.365 0-4.97l4.902-.787c-.14 1.87-.035 8.232.199 9.524 1.086-.7 3.35-3.464 3.35-3.464s1.69 3.073 1.713 3.464c-1.764 2.528-4.678 3.08-4.853 6.51-.339 3.632-.409 5.52-.21 9.27" fill="#f5f5f5"/>
    <path d="M2.586 81.972c-1.755 2.331-4.59 2.889-4.765 6.05-.115 1.142-.243 5.376-.266 8.649" stroke="#ececec" stroke-linecap="round" stroke-linejoin="round" stroke-width="2"/>
    <path d="M-2.418 73.442c-.112 1.795.065 7.165.25 8.392.863-.672 3.072-3.602 3.072-3.602" stroke="#ececec" stroke-linecap="round" stroke-linejoin="round" stroke-width="2"/>
    <path d="M.367 72.054c-1.076.953-2.716 1.363-4.767 0-1.913.953-3.445.809-4.928 0" stroke="#ececec" stroke-linecap="round" stroke-linejoin="round" stroke-width="2"/>
    <path d="m-44.352 164.206 15.276 19.215v.008l12.005-20.813 24.983-5.764c4.565-2.489 7.751-4.737 12.685-12.055 10.443-17.388-6.917-20.101-1.664-27.145 10.618-11.817 43.313-17.66 43.313-17.66-1.76-1.46-34.019-10.308-34.019-10.308S-3.508 97.249-9.452 112.8c1.841 12.603 6.177 17.741-9.774 25.952-15.632 8.047-25.126 25.454-25.126 25.454" fill="#f7f7f7"/>
    <path d="M-30.602 143.158c5.973-2.155 29.843-8.64 21.989-23.521-.985-1.866-1.49-3.904-1.19-5.925 1.82-12.066 22.56-19.091 32.353-22.25l3.473-1.264" opacity=".7" stroke="#ececec" stroke-linecap="round" stroke-linejoin="round" stroke-width="2"/>
    <path d="M10.29 155.126c7.623-7.066 15.405-17.08 12.958-23.322-2.498-6.375-6.905-10.41-3.518-14.753 3.915-5.009 27.066-14.98 39.465-18.081" opacity=".7" stroke="#ececec" stroke-linecap="round" stroke-linejoin="round" stroke-width="2"/>
    <path d="M66.872 81.307c2.136 2.401 2.365 6.223.457 9.439 1.056 4.236-.928 7.672-3.828 8.9-1.641 4.885-7.174 6.817-13.712 4.526-5.227 2.291-9.985.801-12.885-3.436-3.74-1.628-4.973-4.802-4.68-7.796-2.939-3.92-2.48-8.639-.344-11.633-.814-4.996.33-7.231 3.269-9.687.547-4.65 2.417-5.838 4.999-6.569 2.086-3.45 5.151-3.85 8.7-3.063 3.053-1.035 6.576.455 7.848 2.277 3.587.469 4.859 2.842 5.368 5.381 2.645 1.187 2.976 3.423 2.95 5.575 1.896 1.228 2.354 4.057 1.87 6.072z" fill="#f9f9f9" stroke="#ececec" stroke-linecap="round" stroke-linejoin="round" stroke-width="2"/>
    <path d="M67.268 80.863c.48-2.003.025-4.815-1.86-6.036.026-2.14-.29-4.363-2.933-5.542-.506-2.525-1.783-4.898-5.336-5.35-1.264-1.811-4.767-3.293-7.801-2.264-2.53-.562-4.83-.508-6.69.837 1.038-.137 2.163-.028 3.351.233 2.643-.892 5.69.398 6.778 1.975 3.098.398 4.198 2.456 4.64 4.65 2.29 1.03 2.567 2.964 2.542 4.816 1.644 1.056 2.036 3.498 1.618 5.24 1.847 2.085 2.036 5.378.392 8.149.91 3.662-.809 6.625-3.312 7.695-1.416 4.226-6.196 5.899-11.86 3.91-4.515 1.989-8.624.7-11.14-2.963-1.278-.562-2.226-1.33-2.884-2.222.228 2.455 1.594 4.842 4.666 6.173 2.883 4.211 7.625 5.693 12.81 3.416 6.498 2.277 12.011.356 13.63-4.5 2.883-1.22 4.855-4.637 3.806-8.848 1.896-3.183 1.669-6.983-.455-9.383z" fill="#ececec" opacity=".12"/>
    <path d="M54.333 116.249c-1.898-11.266-.986-12.804-.606-16.79.081-3.089 2.833-6.516 3.254-7.192-.028-.427-.42-4.384-.42-4.384-.028-.132-2.699 2.75-3.743 4.045-.176-1.28-.393-5.854-.406-6.516l-6.277-.853c.162 2.045.04 9.002-.23 10.414-1.262-.765-4.909-4.368-4.909-4.368s-.867 3.882-.894 4.309c2.047 2.765 5.355 3.427 5.558 7.178.393 3.971.244 9.044 0 14.157" fill="#f4f4f4"/>
    <path d="M40.086 94.943c2.047 2.765 5.355 3.427 5.559 7.178.234 2.365.131 8.399-.331 13.989" stroke="#ececec" stroke-linecap="round" stroke-linejoin="round" stroke-width="2"/>
    <path d="M46.127 85.44c.163 2.044-.095 8.163-.366 9.56-1.26-.764-4.488-4.103-4.488-4.103" stroke="#ececec" stroke-linecap="round" stroke-linejoin="round" stroke-width="2"/>
    <path d="M56.018 88.457c-.217.22-2.223 2.353-3.267 3.648-.176-1.28-.339-5.722-.353-6.384" stroke="#ececec" stroke-linecap="round" stroke-linejoin="round" stroke-width="2"/>
    <path d="M56.534 92.88c-.42.677-2.725 3.486-2.806 6.575-.28 2.934-.214 9.605.597 17.416" stroke="#ececec" stroke-linecap="round" stroke-linejoin="round" stroke-width="2"/>
    <path d="M43.617 83.114c.475 1.191 1.925 1.868 3.66 1.633 2.753 1.956 5.708.853 6.522-.06" stroke="#ececec" stroke-linecap="round" stroke-linejoin="round" stroke-width="2"/>
    <path d="M160.754 118.549c-1.932-.172-3.978-2.853-3.711-6.36-2.365-1.647-3.593-5.409-1.849-8.911-2.041-2.267-1.554-6.688-.161-9.07-.906-1.418-1.295-5.118.813-7.7-.906-1.806.006-3.673.885-4.655-.783-2.523-.392-4.913 2.041-7.248-.093-1.334.168-2.315 1.137-3.015-.259-3.26.918-6.606 4.572-8.362.298-3.114 2.525-4.765 5.731-5.33 1.25-1.637 3.267-2.357 5.436-1.477 4.168-1.114 7.629 0 9.335 4.621 2.603 1.106 3.909 2.947 4.362 6.348 1.964 1.14 3.823 3.833 3.021 7.168 2.907 2.71 4.62 6.556 2.727 11.17 2.205 2.844 2.205 5.278.893 8.485 2.948 3.308 3.338 9.353-.761 13.337 1.605 4.023-.343 8.656-3.871 10.076-.604 3.918-4.734 7.138-9.849 5.728-1.783.375-3.742.578-5.859.598-3.06.505-5.772.812-8.851-1.653-2.754.148-5.107-.522-6.041-3.753z" fill="#e7e7e7" stroke="#e7e7e7" stroke-linecap="round" stroke-linejoin="round" stroke-width="2"/>
    <path d="M160.462 118.664c-1.908-.169-3.928-2.81-3.665-6.265-2.336-1.622-3.549-5.328-1.825-8.777-2.016-2.233-1.535-6.589-.16-8.936-.894-1.395-.999-5.639 1.082-8.183-.894-1.779.006-3.618.875-4.585-.774-2.485-.388-4.84 2.015-7.139-.091-1.314.166-2.28 1.123-2.97-.256-3.212.767-6.507 4.376-8.237.294-3.067 2.493-4.694 5.659-5.25 1.235-1.612 3.087-1.723 5.229-.856 4.117-1.098 7.534 0 9.219 4.552 2.571 1.09 3.861 2.903 4.308 6.253 1.939 1.122 3.776 3.775 2.984 7.061 2.87 2.669 4.562 6.458 2.692 11.002 2.178 2.801 2.178 5.199.882 8.359 2.912 3.258 3.297 9.212-.752 13.137 1.586 3.962-.338 8.526-3.823 9.925-.595 3.859-4.674 7.031-9.725 5.641-1.762.37-3.696.57-5.787.59-3.022.497-5.701.8-8.741-1.628-2.72.146-5.044-.514-5.966-3.697z" fill="#f9f9f9"/>
    <path d="M196.165 94.843c.996-1.446 1.424-5.221-.893-7.857.996-1.843-.007-3.748-.974-4.749.861-2.574.432-5.013-2.243-7.395.102-1.361-.184-2.363-1.25-3.077.285-3.327-1.009-6.74-5.026-8.532 1.118 1.051 2.983 1.01 2.546 6.293.976.676 1.768 3.732 1.674 5.022 2.451 2.257 2.845 4.569 2.056 7.008.886.948.912 4.138 0 5.884 2.124 2.496-.977 5.642-1.889 7.012 1.403 2.303 1.896 6.579-.162 8.773 1.758 3.384.52 7.024-1.863 8.616.269 3.393-1.794 5.985-3.741 6.151-.941 3.123-3.312 3.771-6.088 3.628-5.7 5.864 1.75 3.877 4.92 1.884 3.028.152 5.614-.532 6.641-3.829 2.124-.175 4.373-2.911 4.079-6.49 2.6-1.68 3.95-5.519 2.033-9.091 2.243-2.314 1.708-6.825.177-9.256z" fill="#e7e7e7" opacity=".15"/>
    <path d="M160.754 118.549c-1.932-.172-3.978-2.853-3.711-6.36-2.365-1.647-3.593-5.409-1.849-8.911-2.041-2.267-1.554-6.688-.161-9.07-.906-1.418-1.295-5.118.813-7.7-.906-1.806.006-3.673.885-4.655-.783-2.523-.392-4.913 2.041-7.248-.093-1.334.168-2.315 1.137-3.015-.259-3.26.918-6.606 4.572-8.362.298-3.114 2.525-4.765 5.731-5.33 1.25-1.637 3.267-2.357 5.436-1.477 4.168-1.114 7.629 0 9.335 4.621 2.603 1.106 3.909 2.947 4.362 6.348 1.964 1.14 3.823 3.833 3.021 7.168 2.907 2.71 4.62 6.556 2.727 11.17 2.205 2.844 2.205 5.278.893 8.485 2.948 3.308 3.338 9.353-.761 13.337 1.605 4.023-.343 8.656-3.871 10.076-.604 3.918-4.734 7.138-9.849 5.728-1.783.375-3.742.578-5.859.598-3.06.505-5.772.812-8.851-1.653-2.754.148-5.107-.522-6.041-3.753z" stroke="#e7e7e7" stroke-linecap="round" stroke-linejoin="round" stroke-width="2"/>
    <path d="M180.197 101.023v6.488l2.128-2.489.886 3.323-2.076 2.93c-.315.537-.929 1.156-.891 1.779.331 5.508.672 26.203 1.508 30.135-2.613.285-2.773.482-2.773.482s-2.028-.347-3.337-.482c-1.802-.185-4.631-.216-4.631-.216s1.202-15.976 1.152-24.138c-2.72-4.239-3.785-3.314-3.785-3.314v-6.088l3.781 3.621.465-11.304" fill="#f4f4f4"/>
    <path d="m172.318 113.374.26-11.324" stroke="#e7e7e7" stroke-linecap="round" stroke-linejoin="round" stroke-width="2"/>
    <path d="m169.084 110.345 3.088 2.881" stroke="#e7e7e7" stroke-linecap="round" stroke-linejoin="round" stroke-width="2"/>
    <path d="M168.727 116.377s3.428 2.409 3.435 3.602c.034 5.451-.463 15.97-.815 22.767" stroke="#e7e7e7" stroke-linecap="round" stroke-linejoin="round" stroke-width="2"/>
    <path d="m183.07 108.869-1.934 3.299c-.314.537-.929 1.156-.891 1.779.252 4.181.301 19.777.891 29.223" stroke="#e7e7e7" stroke-linecap="round" stroke-linejoin="round" stroke-width="2"/>
    <path d="m179.735 107.668 2.593-2.646" stroke="#e7e7e7" stroke-linecap="round" stroke-linejoin="round" stroke-width="2"/>
    <path d="M179.734 100.827v6.16" stroke="#e7e7e7" stroke-linecap="round" stroke-linejoin="round" stroke-width="2"/>
    <path d="M182.749 99.57c-1.453 1.285-3.666 1.838-6.433 0-2.583 1.285-4.65 1.091-6.652 0" stroke="#e7e7e7" stroke-linecap="round" stroke-linejoin="round" stroke-width="2"/>
    <path d="M114.681 152.339c-43.876-.498-87.815 2.642-131.232 9.012-5.489 23.438-10.991 46.876-16.48 70.314 95.104 1.8 192.124-5.221 287.867 0a6921 6921 0 0 1-20.681-70.901c-39.612-5.247-79.517-7.979-119.474-8.425" fill="#f7f7f7"/>
    <path d="M15.146 228.354c-43.48-50.01 53.206-80.762 112.031-76.594l40.85 1.49c6.852.25 29.362 3.619 39.574 3.121-30.332 6.434-121.912 29.22-25.61 71.983z" fill="#f5f5f5"/>
    <path d="M180.898 226.785c-1.391-.6-2.693-1.429-4.008-2.017-.932-.421-1.877-.612-2.783-1.034-.907-.421-1.749-1.072-2.617-1.493-.932-.46-1.902-.69-2.796-1.136-.779-.396-1.494-1.009-2.234-1.405-.587-.306-1.213-.383-1.774-.689-1.073-.574-2.043-1.379-3.039-1.94-.714-.409-1.455-.588-2.119-.983-.868-.511-1.647-1.251-2.451-1.762-.893-.562-1.8-.894-2.617-1.455-.459-.307-.906-.626-1.34-.932-.613-.434-1.111-1.213-1.685-1.647-.626-.472-1.315-.587-1.89-1.059-.676-.562-1.212-1.443-1.825-1.992-1.085-.97-2.157-1.596-3.025-2.54a35 35 0 0 1-1.481-1.736c-.6-.754-.945-1.481-1.417-2.222-.358-.587-.868-1.187-1.162-1.761-.243-.46-.447-.919-.626-1.379-.357-.894-.434-1.826-.6-2.694-.204-1.008-.459-1.94-.421-2.91.026-.575.09-1.136.192-1.698 2.882-16.021 36.854-26.444 56.935-31.178" stroke="#f1f1f1" stroke-linecap="round" stroke-linejoin="round" stroke-width="2"/>
    <path d="M140.582 145.692c-23.301-1.631-54.763 3.118-81.485 12.528m-44.004 68.857c-.625-.698-.829-.671-1.39-1.368-.585-.738-1.49-2.174-2.038-2.94s-.675-.793-1.146-1.559c-.56-.889-1.363-1.682-1.822-2.571-.37-.698-.395-1.505-.7-2.202-.638-1.477-1.53-2.845-1.912-4.294-.331-1.272-.19-2.681-.318-3.898s-.548-3.159-.497-4.349c.05-1.408.611-2.065.904-3.432.255-1.19.23-3.105.65-4.281s.943-2.325 1.529-3.473c.357-.684.471-1.272.879-1.956s1.121-1.436 1.593-2.106c.547-.78.866-1.477 1.477-2.229.485-.602 1.249-1.272 1.784-1.86.42-.479.637-.971 1.096-1.436.382-.397.993-.766 1.414-1.176.42-.411.65-.903 1.096-1.313.445-.41 1.095-.739 1.567-1.135.56-.493.942-1.053 1.528-1.532.383-.301.969-.52 1.35-.82.638-.479 1.07-1.053 1.733-1.532.293-.219.79-.342 1.083-.547.612-.438 1.032-.957 1.67-1.381.394-.26.98-.438 1.388-.698.497-.314.905-.752 1.414-1.067.37-.232.828-.355 1.198-.574.33-.205.904-.615 1.235-.821.46-.273.688-.328 1.16-.601.267-.164.497-.383.777-.547.306-.164.662-.274.968-.438.319-.178.599-.438.93-.615.319-.178.688-.274 1.007-.438 4.6-2.439 9.554-4.709 14.753-6.794" stroke="#f1f1f1" stroke-linecap="round" stroke-linejoin="round" stroke-width="2"/>
    <path d="M-12.93 160.675a366 366 0 0 1 5.043-1.149 17.7 17.7 0 0 1 3.932-.447h1.046c1.239.013 2.554-.204 3.868-.638a13 13 0 0 1 2.413-.549 81 81 0 0 0 1.685-.204c.97-.115 1.928-.153 2.86-.115.268 0 .408.013.676.025 1.43.064 2.936-.102 4.456-.497 1.43-.371 6.548-.92 7.914-.868 1.136.038 1.698.063 2.834.102a812 812 0 0 1 5.592-.524c1.991-.178 2.987-.268 4.966-.434 3.344-.421 5.017-.613 8.348-.996a34.6 34.6 0 0 1 6.843-.497c2.732-.051 4.098-.077 6.817-.103" stroke="#e7e7e7" stroke-linecap="round" stroke-linejoin="round" stroke-width="2"/>
    <path d="M231.649 161.075c-.459-.153-6.069-1.779-6.529-1.932-1.736-.549-3.447-.766-5.055-.625-1.417.115-2.936-.026-4.468-.434-.421-.115-.638-.166-1.06-.281-1.991-.524-3.944-.728-5.808-.6-1.723.115-3.523-.038-5.349-.46-.868-.191-1.302-.293-2.183-.485-1.774-.396-3.523-.536-5.208-.396l-4.085-.319c-1.685.141-3.447-.012-5.221-.459-.307-.077-.447-.115-.754-.192-1.519-.37-5.514-.651-6.944-.447-1.366.205-2.809.141-4.264-.178-.996-.217-1.494-.332-2.502-.549a19 19 0 0 0-3.255-.434c-1.2-.064-1.787-.09-2.987-.153" stroke="#e7e7e7" stroke-linecap="round" stroke-linejoin="round" stroke-width="2"/>
    <path d="M58.75 109.682a6.06 6.06 0 0 1-.64-2.744c0-2.357 1.825-3.088 3.305-3.088 3.245 0 5.672-.099 6.166 1.107.986 2.468-.829 13.678-.77 13.821l-7.28-1.571" fill="#ececec"/>
    <path d="m59.522 117.208 7.281 1.571c-.059-.143 2.92-10.871 1.934-13.339-.493-1.206-4.084-1.589-7.33-1.589-1.48 0-3.305.731-3.305 3.088a6.1 6.1 0 0 0 .4 2.199" stroke="#969696" stroke-linecap="round" stroke-linejoin="round" stroke-width="2"/>
    <path d="M156.208 133.31h.572c3.542 0 6.423 9.473 6.423 19.465 0 9.993-2.881 18.115-6.423 18.115h-6.521c-2.96 0-6.6-6.639-7.32-14.574-.119-1.405 8.494-.11 8.494-1.626-.039-10.093 1.204-21.38 4.775-21.38" fill="#dedede"/>
    <path d="M92.073 133.01h.592c3.66 0 6.64 9.65 6.64 19.831s-2.96 18.458-6.64 18.458h-6.738c-3.118 0-6.768-7.902-7.518-15.936-.128-1.427 8.455 1.949 8.455.477 0-10.247 1.539-22.83 5.21-22.83" fill="#dedede"/>
    <path d="M88.255 151.017c0 9.848 2.427 17.827 5.505 17.827s5.506-7.979 5.506-17.827-2.437-19.233-5.506-19.233c-3.068 0-5.505 9.384-5.505 19.233" fill="#e7e7e7"/>
    <path d="M78.387 154.218c0 8.269 2.308 15.117 5.288 16.108 2.4.941 8.163.941 10.374-.05 2.103-.937 3.853-4.872 4.657-10.164l.247-2.118" stroke="#4a4a4a" stroke-linecap="round" stroke-linejoin="round" stroke-width="2"/>
    <path d="M93.296 162.78c-1.658 0-2.96-4.426-2.96-9.959s1.341-9.96 2.96-9.96 3.009 4.427 3.009 9.96-1.342 9.959-3.01 9.959" fill="#4a4a4a" opacity=".04"/>
    <path d="M99.305 162.658H80.007l-1.026-6.147 19.791-2.507z" fill="#4a4a4a" opacity=".05"/>
    <path d="M88.556 155.166c.286 5.09 1.42 9.373 2.96 11.697" stroke="#969696" stroke-linecap="round" stroke-linejoin="round" stroke-width="2"/>
    <path d="M67.359 133.31h.562c3.542 0 6.423 9.472 6.423 19.465s-2.881 18.115-6.423 18.115H61.41c-2.96 0-6.66-6.717-7.38-14.596-.128-1.405 8.277.874 8.277-.575.04-10.104 1.5-22.409 5.052-22.409" fill="#dedede"/>
    <path d="M53.836 154.218c0 8.269 2.308 15.117 5.288 16.108 2.4.941 8.163.941 10.373-.05 2.104-.937 3.853-4.872 4.658-10.164l.236-1.307" stroke="#4a4a4a" stroke-linecap="round" stroke-linejoin="round" stroke-width="2"/>
    <path d="M63.78 151.114c0 10.07 2.2 18.237 5.001 18.237s4.992-8.167 4.992-18.237-2.2-19.675-4.992-19.675-5.002 9.616-5.002 19.675" fill="#e7e7e7"/>
    <path d="M68.632 162.78c-1.658 0-2.96-4.426-2.96-9.959s1.351-9.96 2.96-9.96 3.009 4.427 3.009 9.96-1.352 9.959-3.01 9.959" fill="#4a4a4a" opacity=".04"/>
    <path d="M73.11 163.032H56.2l-1.974-8.233H74.39z" fill="#4a4a4a" opacity=".05"/>
    <path d="M64.24 158.695c.303 2.914 1.205 5.71 2.635 8.167" stroke="#969696" stroke-linecap="round" stroke-linejoin="round" stroke-width="2"/>
    <path d="M163.038 141.919c2.664-1.704 1.727-18.458 0-24.19-.749-2.468-1.529-2.988-5.347-8.554-1.174-3.707-4.519-19.764-9.994-22.42-10.339-4.946-66.96-3.574-69.85.443l-12.994 21.291s-6.748 3.497-9.047 5.179c-.286 3.707-4.41 3.209-6.304 14.131-1.342 7.746-.108 18.359.72 23.903.156 1.043.64 1.989 1.363 2.667.724.679 1.64 1.043 2.584 1.029h98.944" fill="#fcfcfc"/>
    <path d="m162.568 118.458-24.544 3.078c-3.573.412-7.215 3.372-16.825 10.895-2.82 2.168-3.582 5.106-33.134 5.865a134 134 0 0 1-29.542-2.288c-1.582-.331-3.027-1.204-4.127-2.493-3.959-4.531-5.8-2.829-5.8-2.829l.327 16.011s0 5.127 2.622 6.363c2.623 1.236 9.284 1.908 9.284 1.908l99.453 1.405s4.062-9.292 4.062-22.474-1.776-15.441-1.776-15.441" fill="#4a4a4a" opacity=".04"/>
    <path d="M54.635 123.039c2.9.985 7.39 1.572 9.136 2.579a24 24 0 0 1 4.666 4.946c1.625 3.796 19.525 3.796 19.525 3.796s21.014-.741 23.678-4.338a11 11 0 0 1 3.216-3.198c2.753-1.748 8.712-1.56 11.839-3.32 4.864-2.003 3.918-7.723 3.918-7.723s-11.1.895-14.839 1.172c0 0-45.61 1.76-54.815-1.936-4.41-1.362-4.933-1.561-4.933-1.561l-2.9 6.031-.385.941z" fill="#ececec"/>
    <path d="m135.417 88.834 1.663 22.788 21.334-2.203s-4.801-16.424-9.31-18.416c-5.913-1.992-13.687-2.17-13.687-2.17" fill="#fff"/>
    <path d="m153.719 94.844-4.753 17.706h-5.757l5.254-21.436 2.889.798z" fill="#4a4a4a" opacity=".04"/>
    <path d="m145.086 91.06-6.017 20.517h-2.475l-1.353-21.92z" fill="#4a4a4a" opacity=".04"/>
    <path d="m108.758 122.333-1.056 5.444" stroke="#e7e7e7" stroke-linecap="round" stroke-linejoin="round" stroke-width="2"/>
    <path d="m102.273 121.723-.601 8.211" stroke="#e7e7e7" stroke-linecap="round" stroke-linejoin="round" stroke-width="2"/>
    <path d="m96.148 121.989-.582 8.288" stroke="#e7e7e7" stroke-linecap="round" stroke-linejoin="round" stroke-width="2"/>
    <path d="m70.433 122.663.66 5.268" stroke="#e7e7e7" stroke-linecap="round" stroke-linejoin="round" stroke-width="2"/>
    <path d="m76.214 122.065.849 7.746" stroke="#e7e7e7" stroke-linecap="round" stroke-linejoin="round" stroke-width="2"/>
    <path d="m82.561 121.857.533 8.499" stroke="#e7e7e7" stroke-linecap="round" stroke-linejoin="round" stroke-width="2"/>
    <path d="m89.242 121.579-.187 9.074" stroke="#e7e7e7" stroke-linecap="round" stroke-linejoin="round" stroke-width="2"/>
    <path d="M131.312 118.06s-24.664 6.374-42.551 5.953c-28.473.199-33.465-6.341-33.465-6.341l.444-2.799s22.02 4.005 33.386 3.596 40.914-3.261 40.914-3.261z" fill="#4a4a4a" opacity=".04"/>
    <path d="m119.273 154.969-5.081-8.658c-.632-1.27-1.543-2.337-2.646-3.1a7.03 7.03 0 0 0-3.658-1.26H67.142a6.76 6.76 0 0 0-3.772 1.297c-1.127.812-2.034 1.956-2.621 3.307l-4.164 8.266" fill="#ececec"/>
    <path d="m56.6 154.821 4.163-8.266c.588-1.353 1.496-2.498 2.625-3.31a6.77 6.77 0 0 1 3.777-1.294h40.737a7.03 7.03 0 0 1 3.658 1.26c1.103.763 2.014 1.83 2.646 3.1l3.177 5.71-7.617-4.791h-44.05" fill="#e6e6e6"/>
    <path d="M152.408 154.884c0 8.576 3.148 15.536 6.15 15.536s5.419-6.96 5.419-15.536-2.417-16.77-5.419-16.77-6.15 8.175-6.15 16.77" fill="#e7e7e7"/>
    <path d="M158.314 162.78c-1.658 0-2.96-4.426-2.96-9.959s1.352-9.96 2.96-9.96 2.959 4.427 2.959 9.96-1.292 9.959-2.959 9.959" fill="#4a4a4a" opacity=".04"/>
    <path d="M153.266 162.656h-9.047l-.869-6.795 8.761-.62z" fill="#4a4a4a" opacity=".05"/>
    <path d="M133.376 137.302h.572c3.552 0 5.279 5.381 5.279 15.373 0 9.993-2.891 18.104-6.433 18.104h-6.511c-2.96 0-6.996-7.326-7.716-15.205-.129-1.405 9.097 1.483 9.097 0 0-10.036 2.17-18.272 5.712-18.272" fill="#dedede"/>
    <path d="M128.241 154.884c0 8.576 2.417 15.536 5.419 15.536s5.418-6.96 5.418-15.536-2.417-16.77-5.418-16.77-5.419 8.175-5.419 16.77" fill="#e7e7e7"/>
    <path d="M158.089 136.708c-3.332 0-6.034 8.491-6.034 17.438 0 8.948 2.702 16.232 6.034 16.232" stroke="#4a4a4a" stroke-linecap="round" stroke-linejoin="round" stroke-width="2"/>
    <path d="M152.055 154.147c0 8.947 2.702 16.231 6.034 16.231" stroke="#969696" stroke-linecap="round" stroke-linejoin="round" stroke-width="2"/>
    <path d="M133.874 162.78c-1.658 0-2.96-4.426-2.96-9.959s1.342-9.96 2.96-9.96 3.009 4.427 3.009 9.96-1.342 9.959-3.009 9.959" fill="#4a4a4a" opacity=".04"/>
    <path d="M128.977 163.032h-9.433l-.943-8.063 9.537.471z" fill="#4a4a4a" opacity=".05"/>
    <path d="M54.71 139.254a3.2 3.2 0 0 0-.798-1.472 2.56 2.56 0 0 0-1.371-.741 2.5 2.5 0 0 0-1.52.188 2.94 2.94 0 0 0-1.184 1.106 3.34 3.34 0 0 0-.483 1.644 3.37 3.37 0 0 0 .385 1.676 2.9 2.9 0 0 0 1.119 1.171c.465.263.987.371 1.505.312" fill="#e6e6e6"/>
    <path d="M66.1 128.905c.77.863 1.579 1.859 2.319 2.811 1.825 2.401 8.01 2.401 19.731 2.401 13.043.011 19.683-.454 22.297-4.05a8.6 8.6 0 0 1 1.561-1.666" stroke="#969696" stroke-linecap="round" stroke-linejoin="round" stroke-width="2"/>
    <path d="M65.494 116.522c-5.13-1.239-9.087-2.468-9.087-2.468l-.75 2.579-3.028 3.596 1.973 2.756c2.9.985 7.39 2.965 9.126 3.983.812.55 1.556-.185 2.21.587" fill="#fff"/>
    <path d="M66.078 128.885a9.3 9.3 0 0 0-2.2-1.926c-1.736-1.018-6.68-1.483-9.61-4.172" fill="#ffcee7"/>
    <path d="M66.078 128.885a9.3 9.3 0 0 0-2.2-1.926c-1.736-1.018-6.68-1.483-9.61-4.172" stroke="#969696" stroke-linecap="round" stroke-linejoin="round" stroke-width="2"/>
    <path d="M112.129 128.329c3.325-2.213 9.264-.807 14.296-3.142a7.3 7.3 0 0 0 2.513-2.051 8.3 8.3 0 0 0 1.502-3.051c.583-1.837.474-4.603-1.262-4.426-3.325.354-9.58.929-12.747 1.217a2.12 2.12 0 0 0-1.272.617 2.6 2.6 0 0 0-.701 1.342l-.918 4.504" fill="#fff"/>
    <path d="M112.129 128.329c3.325-2.213 9.264-.807 14.296-3.142a7.3 7.3 0 0 0 2.513-2.051 8.3 8.3 0 0 0 1.502-3.051c.583-1.837.474-4.603-1.262-4.426-3.325.354-9.58.929-12.747 1.217a2.12 2.12 0 0 0-1.272.617 2.6 2.6 0 0 0-.701 1.342l-.918 4.504" stroke="#a9a9a9" stroke-linecap="round" stroke-linejoin="round" stroke-width="2"/>
    <path d="M122.339 120.802c2.898 0 3.333-2.937 3.333-2.937v-1.51l-6.534.573.66 1.761s.763 2.113 2.541 2.113" fill="#fcfcfc"/>
    <path d="M125.672 117.865s-.435 2.937-3.333 2.937c-1.778 0-2.541-2.113-2.541-2.113" stroke="#f7f7f7" stroke-linecap="round" stroke-linejoin="round" stroke-width="2"/>
    <g opacity=".9">
      <path d="M54.398 116.886s.435 2.937 3.334 2.937c1.777 0 2.54-2.113 2.54-2.113" fill="#fcfcfc"/>
      <path d="M54.398 116.886s.435 2.937 3.334 2.937c1.777 0 2.54-2.113 2.54-2.113" stroke="#f7f7f7" stroke-linecap="round" stroke-linejoin="round" stroke-width="2"/>
    </g>
    <path d="M117.707 124.386a1.434 1.434 0 1 1-.002-2.868 1.434 1.434 0 0 1 .002 2.868" fill="#f7f7f7" opacity=".89"/>
    <path d="M62.06 123.239a1.434 1.434 0 1 0-.001-2.869 1.434 1.434 0 0 0 0 2.869" fill="#f7f7f7" opacity=".89"/>
    <path d="M56.558 114.274s3.858 1.306 6.906 2.136a2.67 2.67 0 0 1 1.411 1.018 3.3 3.3 0 0 1 .592 1.759l.158 5.013" stroke="#969696" stroke-linecap="round" stroke-linejoin="round" stroke-width="2"/>
    <path d="M112.129 128.329c3.325-2.213 9.264-.807 14.296-3.142a7.3 7.3 0 0 0 2.513-2.051 8.3 8.3 0 0 0 1.502-3.051c.583-1.837.474-4.603-1.262-4.426-3.325.354-9.58.929-12.747 1.217a2.12 2.12 0 0 0-1.272.617 2.6 2.6 0 0 0-.701 1.342l-1.32 6.352" stroke="#969696" stroke-linecap="round" stroke-linejoin="round" stroke-width="2"/>
    <path d="m131.46 83.809.056 25.529H65.368s5.756-15.496 13.102-22.254c5.585-5.156 52.99-3.275 52.99-3.275" fill="#fff"/>
    <path d="m65.367 109.43 9.44-16.794c4.05-7.202 11.142-7.743 18.75-8.3 14.877-1.092 36.521-1.02 47.973.837 5.315.862 8.372 2.35 10.675 7.463 2.468 5.478 4.09 13.101 6.207 16.781 3.808 5.567 3.877 5.877 4.627 8.355 1.263 4.182 3.026 15.074 2.131 21.833-.216 1.636-1.058 3.094-2.131 4.347" stroke="#4a4a4a" stroke-linecap="round" stroke-linejoin="round" stroke-width="2"/>
    <path d="m140.273 89.656-3.383-.545a1.056 1.056 0 0 0-1.222 1.104l1.182 20.188c.03.526.445.949.971.991l.42.033" stroke="#7f7f7f" stroke-linecap="round" stroke-linejoin="round" stroke-width="2"/>
    <path d="m154.664 109.749-3.611.342" stroke="#a9a9a9" stroke-linecap="round" stroke-linejoin="round" stroke-width="2"/>
    <path d="M141.627 112.831c.809 0 6.189.304 7.561-.471.789-.381 1.461-1.013 1.934-1.817a5.4 5.4 0 0 0 .73-2.709c0-2.213-1.835-2.866-3.305-2.866-3.306 0-5.673-.1-6.167 1.107a42 42 0 0 0-1.667 5.256l.236.797" fill="#ececec"/>
    <path d="M144.255 112.836c.809 0 3.561.299 4.933-.476.789-.381 1.461-1.013 1.934-1.817a5.4 5.4 0 0 0 .73-2.709c0-2.213-1.835-2.866-3.305-2.866-3.306 0-5.673-.1-6.167 1.107a42 42 0 0 0-1.667 5.256" stroke="#969696" stroke-linecap="round" stroke-linejoin="round" stroke-width="2"/>
    <path d="m146.57 101.372-2.269-11.066 1.387.051" stroke="#a9a9a9" stroke-linecap="round" stroke-linejoin="round" stroke-width="2"/>
    <path d="M52.375 143.524c.62-.351 1.11-.937 1.385-1.653a3.7 3.7 0 0 0 .115-2.264 3.4 3.4 0 0 0-1.184-1.837 2.82 2.82 0 0 0-1.973-.564c-.405.104-.78.316-1.095.619" stroke="#ccc" stroke-linecap="round" stroke-linejoin="round" stroke-width="2"/>
    <path d="M124.758 139.253a2.6 2.6 0 0 0-.513-1.272 2.2 2.2 0 0 0-1.056-.764 2.54 2.54 0 0 0-1.874.531c-.409.316-.734.75-.94 1.257a3.41 3.41 0 0 0 .304 3.143c.299.445.699.79 1.159 1.001.253.066.516.066.769 0" fill="#e6e6e6"/>
    <path d="M124.758 139.253a2.6 2.6 0 0 0-.513-1.272 2.2 2.2 0 0 0-1.056-.764 2.54 2.54 0 0 0-1.874.531c-.409.316-.734.75-.94 1.257a3.41 3.41 0 0 0 .304 3.143c.299.445.699.79 1.159 1.001.253.066.516.066.769 0" stroke="#ccc" stroke-linecap="round" stroke-linejoin="round" stroke-width="2"/>
    <path d="M68.812 117.365c11.208 1.106 29.598.73 41.743 0" stroke="#969696" stroke-linecap="round" stroke-linejoin="round" stroke-width="2"/>
    <path d="m125.312 84.188-10.943 25.23h-13.873l11.546-26.083z" fill="#4a4a4a" opacity=".04"/>
    <path d="M100.234 84.186 89.3 109.416l-26.226 1.237 15.184-23.568z" fill="#4a4a4a" opacity=".04"/>
    <path d="M127.321 155.166c.287 5.09 1.421 9.373 2.96 11.697" stroke="#969696" stroke-linecap="round" stroke-linejoin="round" stroke-width="2"/>
    <path d="M65.364 109.43c-2.358.697-7.765 1.793-9.264 3.851a2.4 2.4 0 0 0-.365 1.029c-.73 5.644-4.38 2.966-6.235 13.589a48.6 48.6 0 0 0-.592 8.964c.036.809.152 1.61.345 2.39.375 1.594-.168 5.721.138 7.935.868 6.374 3.503 8.388 8.584 8.388 22.327.088 44.656-.041 66.983-.136 1.788 0 3.205-1.49 3.223-3.278.1-10.367 2.92-15.453 5.376-15.453 3.585 0 6.034 8.491 6.034 17.439 0 8.269-2.308 15.117-5.288 16.108-2.4.941-8.163.941-10.374-.05-2.103-.937-3.853-4.872-4.657-10.164l-.261-1.926" stroke="#4a4a4a" stroke-linecap="round" stroke-linejoin="round" stroke-width="2"/>
    <path d="M142.906 155.44h6.211c1.787 0 3.205-1.49 3.222-3.278.101-10.367 2.921-15.453 5.376-15.453 3.586 0 6.035 8.491 6.035 17.439 0 8.269-2.308 15.117-5.289 16.108-2.399.941-8.163.941-10.373-.05-2.104-.937-3.853-4.872-4.658-10.164l-.202-1.81" stroke="#4a4a4a" stroke-linecap="round" stroke-linejoin="round" stroke-width="2"/>
    <path d="M148.192 117.363s2.852 7.602.819 24.068" stroke="#ccc" stroke-linecap="round" stroke-linejoin="round" stroke-width="2"/>
    <path d="m154.688 120.812-.396.033" stroke="#e7e7e7" stroke-linecap="round" stroke-linejoin="round" stroke-width="2"/>
    <path d="m145.406 122.028-.396.054" stroke="#e7e7e7" stroke-linecap="round" stroke-linejoin="round" stroke-width="2"/>
    <path d="m58.602 150.563 2.21-4.271c.584-1.353 1.49-2.499 2.618-3.311a6.74 6.74 0 0 1 3.775-1.293s14.315.421 19.03.421c5.427 0 21.706-.421 21.706-.421 1.293.065 2.55.5 3.652 1.263s2.011 1.829 2.642 3.098l3.529 6.465" stroke="#ccc" stroke-linecap="round" stroke-linejoin="round" stroke-width="2"/>
    <path d="M68.102 109.431h61.654c.682 0 1.235-.553 1.235-1.236v-19.79" stroke="#7f7f7f" stroke-linecap="round" stroke-linejoin="round" stroke-width="2"/>
  </g>
  <defs>
    <clipPath id="clip0_5967_84806">
      <rect fill="#fff" height="202" rx="12" width="212"/>
    </clipPath>
  </defs>
</svg>